HIERARCHY
ROOT joint_Root
{
	OFFSET 0.0 0.0 0.0
	CHANNELS 6 Xposition Yposition Zposition Zrotation Xrotation Yrotation 
	JOINT Hips
	{
		OFFSET 4.5925 91.4895 -427.239
		CHANNELS 6 Xposition Yposition Zposition Zrotation Xrotation Yrotation 
		JOINT Spine
		{
			OFFSET 15.7357 0.0 0.0
			CHANNELS 6 Xposition Yposition Zposition Zrotation Xrotation Yrotation 
			JOINT Chest
			{
				OFFSET 8.98455 -0.406207 0.0
				CHANNELS 6 Xposition Yposition Zposition Zrotation Xrotation Yrotation 
				JOINT Neck
				{
					OFFSET 16.3773 0.0 0.0
					CHANNELS 6 Xposition Yposition Zposition Zrotation Xrotation Yrotation 
					JOINT Head
					{
						OFFSET 6.45672 0.0 0.0
						CHANNELS 6 Xposition Yposition Zposition Zrotation Xrotation Yrotation 
						End Site
						{
							OFFSET 0.0 0.0 0.0
						}
					}
				}
				JOINT Shoulder_L
				{
					OFFSET 12.9942 -0.242716 4.98039
					CHANNELS 6 Xposition Yposition Zposition Zrotation Xrotation Yrotation 
					JOINT UpperArm_L
					{
						OFFSET 5.34809 0.0 0.0
						CHANNELS 6 Xposition Yposition Zposition Zrotation Xrotation Yrotation 
						JOINT LowerArm_L
						{
							OFFSET 24.3286 1.87007e-05 0.0
							CHANNELS 6 Xposition Yposition Zposition Zrotation Xrotation Yrotation 
							JOINT Hand_L
							{
								OFFSET 22.2916 0.0 0.0
								CHANNELS 6 Xposition Yposition Zposition Zrotation Xrotation Yrotation 
								End Site
								{
									OFFSET 0.0 0.0 0.0
								}
							}
						}
					}
				}
				JOINT Shoulder_R
				{
					OFFSET 12.9945 -0.242716 -4.98039
					CHANNELS 6 Xposition Yposition Zposition Zrotation Xrotation Yrotation 
					JOINT UpperArm_R
					{
						OFFSET -5.34813 0.0 0.0
						CHANNELS 6 Xposition Yposition Zposition Zrotation Xrotation Yrotation 
						JOINT LowerArm_R
						{
							OFFSET -24.3289 0.000322201 0.0
							CHANNELS 6 Xposition Yposition Zposition Zrotation Xrotation Yrotation 
							JOINT Hand_R
							{
								OFFSET -22.2915 -0.000108084 0.0
								CHANNELS 6 Xposition Yposition Zposition Zrotation Xrotation Yrotation 
								End Site
								{
									OFFSET 0.0 0.0 0.0
								}
							}
						}
					}
				}
			}
		}
		JOINT UpperLeg_L
		{
			OFFSET -2.19248 -6.46944 0.0
			CHANNELS 6 Xposition Yposition Zposition Zrotation Xrotation Yrotation 
			JOINT LowerLeg_L
			{
				OFFSET 39.0811 0.0 -1.23785e-05
				CHANNELS 6 Xposition Yposition Zposition Zrotation Xrotation Yrotation 
				JOINT Foot_L
				{
					OFFSET 40.9854 0.0 -1.26872e-05
					CHANNELS 6 Xposition Yposition Zposition Zrotation Xrotation Yrotation 
					JOINT Toes_L
					{
						OFFSET 11.7543 0.0 0.0
						CHANNELS 6 Xposition Yposition Zposition Zrotation Xrotation Yrotation 
						End Site
						{
							OFFSET 0.0 0.0 0.0
						}
					}
				}
			}
		}
		JOINT UpperLeg_R
		{
			OFFSET -2.19251 6.46944 0.0
			CHANNELS 6 Xposition Yposition Zposition Zrotation Xrotation Yrotation 
			JOINT LowerLeg_R
			{
				OFFSET -39.0811 -0.00228153 -0.0401928
				CHANNELS 6 Xposition Yposition Zposition Zrotation Xrotation Yrotation 
				JOINT Foot_R
				{
					OFFSET -40.9854 0.0 0.0
					CHANNELS 6 Xposition Yposition Zposition Zrotation Xrotation Yrotation 
					JOINT Toes_R
					{
						OFFSET -11.7543 0.0 0.0
						CHANNELS 6 Xposition Yposition Zposition Zrotation Xrotation Yrotation 
						End Site
						{
							OFFSET 0.0 0.0 0.0
						}
					}
				}
			}
		}
	}
}
MOTION
Frames:	9
Frame Time:	0.0333333
0.000000 0.000000 0.000000 0.000000 0.000000 -0.000000 -0.128130 90.550900 -5.980390 89.270000 -2.497110 6.621320 15.735700 0.000005 -0.000001 89.052900 77.228700 -89.414800 8.984550 -0.406207 -0.000000 17.772200 -0.446076 -0.655323 16.377300 -0.000001 -0.000001 3.979500 -2.383550 1.113500 6.456720 -0.000001 -0.000000 -10.487900 -1.417020 1.106220 12.994200 -0.242716 4.980390 -91.053000 5.125590 -78.374900 5.348090 -0.000007 -0.000001 -51.120600 38.580200 -36.200900 24.328600 0.000019 0.000005 6.769720 17.534200 -21.505100 22.291600 -0.000001 0.000005 13.168300 5.259710 1.174660 12.994500 -0.242716 -4.980390 89.293900 9.444610 -85.705000 -5.348130 -0.000001 -0.000004 -54.220500 36.067100 -29.319400 -24.328900 0.000322 -0.000009 1.578700 3.798990 -22.598700 -22.291500 -0.000108 -0.000004 17.458200 5.446170 -4.503280 -2.192480 -6.469440 -0.000000 -176.507000 -11.016000 -9.844220 39.081100 -0.000007 -0.000012 -0.193504 0.287307 33.960900 40.985400 -0.000006 -0.000013 0.899810 4.561530 -67.593300 11.754300 -0.000000 0.000003 -0.000104 -0.001066 -16.618400 -2.192510 6.469440 -0.000001 177.427000 18.143600 171.511000 -39.081100 -0.002282 -0.040193 -0.119625 0.187294 33.276600 -40.985400 0.000008 0.000006 4.973450 12.073200 -68.735200 -11.754300 -0.000006 -0.000006 -0.002767 -0.037940 -18.116000
0.000000 0.000000 0.000000 0.000000 0.000000 -0.000000 -0.100162 90.542900 -5.919540 89.271100 -2.479200 6.721860 15.735700 0.000005 -0.000001 88.982400 77.243000 -89.357900 8.984550 -0.406207 -0.000000 17.742800 -0.477550 -0.677737 16.377300 -0.000001 -0.000001 3.978160 -2.378040 1.132840 6.456720 -0.000001 -0.000000 -10.513400 -1.382470 1.074650 12.994200 -0.242716 4.980390 -91.052600 5.096000 -78.312800 5.348090 -0.000007 -0.000001 -51.792900 37.678600 -35.574100 24.328600 0.000019 0.000005 7.039700 17.269500 -22.585800 22.291600 -0.000001 0.000005 13.430500 5.262880 1.089810 12.994500 -0.242716 -4.980390 89.282200 9.417290 -85.621300 -5.348130 -0.000001 -0.000004 -54.389100 35.756600 -29.089000 -24.328900 0.000322 -0.000009 1.723530 3.969430 -23.506200 -22.291500 -0.000108 -0.000004 17.576700 5.447420 -4.547700 -2.192480 -6.469440 -0.000000 -176.502000 -11.034800 -9.712740 39.081100 -0.000007 -0.000012 -0.192756 0.285811 33.996800 40.985400 -0.000006 -0.000013 0.931102 4.589930 -67.662100 11.754300 -0.000000 0.000003 -0.000101 -0.001041 -16.617500 -2.192510 6.469440 -0.000001 177.361000 18.108600 171.650000 -39.081100 -0.002282 -0.040193 -0.118054 0.184654 33.311800 -40.985400 0.000008 0.000006 4.987520 12.042800 -68.803700 -11.754300 -0.000006 -0.000006 -0.002595 -0.035935 -18.034400
0.000000 0.000000 0.000000 0.000000 0.000000 -0.000000 -0.076957 90.536800 -5.861510 89.273500 -2.545820 6.789200 15.735700 0.000005 -0.000001 89.019700 77.257400 -89.414600 8.984550 -0.406207 -0.000000 17.714400 -0.462375 -0.719197 16.377300 -0.000001 -0.000001 3.959820 -2.382350 1.122410 6.456720 -0.000001 -0.000000 -10.536100 -1.344410 1.062650 12.994200 -0.242716 4.980390 -91.058200 5.092430 -78.244500 5.348090 -0.000007 -0.000001 -52.328600 36.684200 -34.929300 24.328600 0.000019 0.000005 7.517630 17.079000 -24.195800 22.291600 -0.000001 0.000005 13.701600 5.260860 1.143850 12.994500 -0.242716 -4.980390 89.268600 9.392810 -85.527400 -5.348130 -0.000001 -0.000004 -54.522400 35.356200 -28.851200 -24.328900 0.000322 -0.000009 1.896470 4.127890 -24.714000 -22.291500 -0.000108 -0.000004 17.750000 5.448730 -4.594350 -2.192480 -6.469440 -0.000000 -176.495000 -11.071300 -9.602690 39.081100 -0.000007 -0.000012 -0.192985 0.285881 34.021800 40.985400 -0.000006 -0.000013 0.945248 4.585770 -67.727800 11.754300 -0.000000 0.000003 -0.000104 -0.001062 -16.618300 -2.192510 6.469440 -0.000001 177.335000 18.021100 171.735000 -39.081100 -0.002282 -0.040193 -0.113207 0.177006 33.352100 -40.985400 0.000008 0.000006 5.072340 11.972000 -68.879100 -11.754300 -0.000006 -0.000006 -0.002854 -0.038940 -18.156700
0.000000 0.000000 0.000000 0.000000 0.000000 -0.000000 -0.059109 90.527600 -5.831920 89.268000 -2.521470 6.861420 15.735700 0.000005 -0.000001 88.994600 77.259700 -89.392600 8.984550 -0.406207 -0.000000 17.709500 -0.473516 -0.723642 16.377300 -0.000001 -0.000001 3.918610 -2.400070 1.145380 6.456720 -0.000001 -0.000000 -10.575900 -1.326960 1.004450 12.994200 -0.242716 4.980390 -91.062700 5.085510 -78.180100 5.348090 -0.000007 -0.000001 -52.744700 35.650700 -34.413400 24.328600 0.000019 0.000005 8.082260 16.887900 -26.050700 22.291600 -0.000001 0.000005 14.002500 5.262880 1.090270 12.994500 -0.242716 -4.980390 89.242000 9.416750 -85.376700 -5.348130 -0.000001 -0.000004 -54.542300 34.856400 -28.576500 -24.328900 0.000322 -0.000009 2.118960 4.286100 -26.349500 -22.291500 -0.000108 -0.000004 17.935500 5.449190 -4.610610 -2.192480 -6.469440 -0.000000 -176.488000 -11.069000 -9.527840 39.081100 -0.000007 -0.000012 -0.193134 0.285601 34.068400 40.985400 -0.000006 -0.000013 0.961111 4.582200 -67.778200 11.754300 -0.000000 0.000003 -0.000093 -0.000968 -16.614700 -2.192510 6.469440 -0.000001 177.282000 18.033400 171.827000 -39.081100 -0.002282 -0.040193 -0.116971 0.182535 33.379600 -40.985400 0.000008 0.000006 5.015470 12.005800 -68.905000 -11.754300 -0.000006 -0.000006 -0.002700 -0.037157 -18.084100
0.000000 0.000000 0.000000 0.000000 0.000000 -0.000000 -0.045013 90.521300 -5.809260 89.239400 -2.506730 6.926480 15.735700 0.000005 -0.000001 88.947500 77.253400 -89.349700 8.984550 -0.406207 -0.000000 17.721600 -0.494698 -0.728816 16.377300 -0.000001 -0.000001 3.866080 -2.398330 1.136210 6.456720 -0.000001 -0.000000 -10.593800 -1.319180 1.041310 12.994200 -0.242716 4.980390 -91.068200 5.068770 -78.082700 5.348090 -0.000007 -0.000001 -53.106100 34.454300 -33.936900 24.328600 0.000019 0.000005 8.925260 16.928400 -28.339900 22.291600 -0.000001 0.000005 14.114400 5.260810 1.145240 12.994500 -0.242716 -4.980390 89.215500 9.457670 -85.236400 -5.348130 -0.000001 -0.000004 -54.490000 34.250200 -28.338700 -24.328900 0.000322 -0.000009 2.361240 4.390900 -28.316100 -22.291500 -0.000108 -0.000004 18.109000 5.450790 -4.667760 -2.192480 -6.469440 -0.000000 -176.449000 -11.043200 -9.467240 39.081100 -0.000007 -0.000012 -0.193718 0.285993 34.112300 40.985400 -0.000006 -0.000013 0.970691 4.599220 -67.817500 11.754300 -0.000000 0.000003 -0.000099 -0.001023 -16.616800 -2.192510 6.469440 -0.000001 177.271000 18.067200 171.916000 -39.081100 -0.002282 -0.040193 -0.115401 0.180099 33.387200 -40.985400 0.000008 0.000006 4.999280 12.025200 -68.924600 -11.754300 -0.000006 -0.000006 -0.002702 -0.037187 -18.085400
0.000000 0.000000 0.000000 0.000000 0.000000 -0.000000 -0.036452 90.521200 -5.799840 89.233500 -2.513010 6.983750 15.735700 0.000005 -0.000001 88.940600 77.239000 -89.358000 8.984550 -0.406207 -0.000000 17.750400 -0.499661 -0.758378 16.377300 -0.000001 -0.000001 3.812870 -2.417880 1.125160 6.456720 -0.000001 -0.000000 -10.604600 -1.329110 1.096260 12.994200 -0.242716 4.980390 -91.079200 5.064150 -77.953500 5.348090 -0.000007 -0.000001 -53.460500 33.104800 -33.530200 24.328600 0.000019 0.000005 10.004800 17.152800 -30.885700 22.291600 -0.000001 0.000005 14.540600 5.257800 1.225570 12.994500 -0.242716 -4.980390 89.180300 9.511180 -85.051300 -5.348130 -0.000001 -0.000004 -54.375500 33.557700 -28.157500 -24.328900 0.000322 -0.000009 2.602200 4.409530 -30.597600 -22.291500 -0.000108 -0.000004 18.369400 5.451240 -4.684010 -2.192480 -6.469440 -0.000000 -176.438000 -11.057700 -9.403000 39.081100 -0.000007 -0.000012 -0.194179 0.286642 34.115100 40.985400 -0.000006 -0.000013 0.978812 4.594010 -67.826600 11.754300 -0.000000 0.000003 -0.000101 -0.001039 -16.617400 -2.192510 6.469440 -0.000001 177.252000 18.053700 171.978000 -39.081100 -0.002282 -0.040193 -0.115566 0.180346 33.387700 -40.985400 0.000008 0.000006 5.030820 12.021100 -68.934700 -11.754300 -0.000006 -0.000006 -0.002665 -0.036754 -18.067700
0.000000 0.000000 0.000000 0.000000 0.000000 -0.000000 -0.033980 90.522600 -5.811240 89.218600 -2.539380 7.047150 15.735700 0.000005 -0.000001 88.895200 77.224400 -89.324700 8.984550 -0.406207 -0.000000 17.779000 -0.521156 -0.779058 16.377300 -0.000001 -0.000001 3.814410 -2.452400 1.167200 6.456720 -0.000001 -0.000000 -10.632300 -1.329850 1.066930 12.994200 -0.242716 4.980390 -91.082700 5.035900 -77.849400 5.348090 -0.000007 -0.000001 -53.750500 31.689100 -33.141100 24.328600 0.000019 0.000005 11.125200 17.127200 -33.732900 22.291600 -0.000001 0.000005 15.196200 5.249580 1.442670 12.994500 -0.242716 -4.980390 89.150500 9.499740 -84.866300 -5.348130 -0.000001 -0.000004 -54.278100 32.805200 -28.073600 -24.328900 0.000322 -0.000009 2.623940 4.034460 -33.094100 -22.291500 -0.000108 -0.000004 18.457200 5.441190 -4.327300 -2.192480 -6.469440 -0.000000 -176.412000 -11.088700 -9.338420 39.081100 -0.000007 -0.000012 -0.191550 0.282750 34.116200 40.985400 -0.000006 -0.000013 0.983288 4.594730 -67.826100 11.754300 -0.000000 0.000003 -0.000108 -0.001096 -16.619500 -2.192510 6.469440 -0.000001 177.248000 18.090300 172.045000 -39.081100 -0.002282 -0.040193 -0.112572 0.175842 33.381900 -40.985400 0.000008 0.000006 5.106310 12.047900 -68.945800 -11.754300 -0.000006 -0.000006 -0.002805 -0.038375 -18.133700
0.000000 0.000000 0.000000 0.000000 0.000000 -0.000000 -0.032377 90.516200 -5.843640 89.205200 -2.556960 7.087020 15.735700 0.000005 -0.000001 88.845000 77.209800 -89.290000 8.984550 -0.406207 -0.000000 17.807700 -0.545202 -0.806409 16.377300 -0.000001 -0.000001 3.772480 -2.475850 1.176470 6.456720 -0.000001 -0.000000 -10.569800 -1.340660 1.081320 12.994200 -0.242716 4.980390 -91.087500 5.010160 -77.737300 5.348090 -0.000007 -0.000001 -53.896400 30.230500 -32.905100 24.328600 0.000019 0.000005 12.487200 17.226200 -36.788900 22.291600 -0.000001 0.000005 15.916000 5.241570 1.654680 12.994500 -0.242716 -4.980390 89.119800 9.507960 -84.686500 -5.348130 -0.000001 -0.000004 -54.056800 31.954800 -28.103900 -24.328900 0.000322 -0.000009 2.414540 3.339830 -35.911900 -22.291500 -0.000108 -0.000004 18.314300 5.430580 -3.958950 -2.192480 -6.469440 -0.000000 -176.387000 -11.120000 -9.340870 39.081100 -0.000007 -0.000012 -0.193822 0.285676 34.155900 40.985400 -0.000006 -0.000013 0.992592 4.616640 -67.821600 11.754300 -0.000000 0.000003 -0.000090 -0.000939 -16.613600 -2.192510 6.469440 -0.000001 177.246000 18.098500 172.051000 -39.081100 -0.002282 -0.040193 -0.114396 0.178497 33.398600 -40.985400 0.000008 0.000006 5.049940 12.111700 -68.913700 -11.754300 -0.000006 -0.000006 -0.002744 -0.037672 -18.105100
0.000000 0.000000 0.000000 0.000000 0.000000 -0.000000 -0.035661 90.522300 -5.867290 89.181100 -2.600930 7.165230 15.735700 0.000005 -0.000001 88.829300 77.184000 -89.280600 8.984550 -0.406207 -0.000000 17.859000 -0.553780 -0.817231 16.377300 -0.000001 -0.000001 3.762330 -2.513110 1.235130 6.456720 -0.000001 -0.000000 -10.580300 -1.320940 0.984942 12.994200 -0.242716 4.980390 -91.113400 5.085580 -77.633900 5.348090 -0.000007 -0.000001 -53.915900 28.706200 -32.782900 24.328600 0.000019 0.000005 13.882600 17.146600 -39.972500 22.291600 -0.000001 0.000005 16.623300 5.232240 1.896900 12.994500 -0.242716 -4.980390 89.085900 9.482600 -84.468600 -5.348130 -0.000001 -0.000004 -53.792000 31.076600 -28.233500 -24.328900 0.000322 -0.000009 2.682410 3.314260 -39.029000 -22.291500 -0.000108 -0.000004 18.445300 5.422810 -3.694280 -2.192480 -6.469440 -0.000000 -176.342000 -11.150400 -9.255680 39.081100 -0.000007 -0.000012 -0.189194 0.279048 34.137500 40.985400 -0.000006 -0.000013 0.990432 4.625470 -67.805300 11.754300 -0.000000 0.000003 -0.000095 -0.000984 -16.615300 -2.192510 6.469440 -0.000001 177.259000 18.108700 172.136000 -39.081100 -0.002282 -0.040193 -0.111914 0.174975 33.362100 -40.985400 0.000008 0.000006 5.103520 12.139200 -68.892800 -11.754300 -0.000006 -0.000006 -0.002625 -0.036281 -18.048500
